<?xml version="1.0" standalone="no"?>
<!DOCTYPE svg PUBLIC "-//W3C//DTD SVG 20010904//EN"
 "http://www.w3.org/TR/2001/REC-SVG-20010904/DTD/svg10.dtd">
<svg version="1.0" xmlns="http://www.w3.org/2000/svg"
 width="300.000000pt" height="103.000000pt" viewBox="0 0 300.000000 103.000000"
 preserveAspectRatio="xMidYMid meet">
<metadata>
Created by potrace 1.10, written by Peter Selinger 2001-2011
</metadata>
<g transform="translate(0.000000,103.000000) scale(0.100000,-0.100000)"
fill="#e6e6e6" stroke="none">
<path d="M625 1011 c-130 -22 -244 -74 -329 -152 -110 -100 -150 -250 -80
-296 33 -21 55 -4 36 27 -33 53 -5 116 92 208 110 104 228 152 371 152 114 -1
175 -38 175 -108 0 -142 -164 -261 -289 -209 l-30 13 82 80 c45 44 94 88 110
98 34 21 38 69 7 86 -59 31 -132 -39 -379 -365 l-136 -180 -5 67 c-6 85 -26
111 -68 88 -59 -34 -157 -197 -170 -285 -19 -129 20 -149 128 -64 28 22 53 39
55 37 1 -1 10 -17 18 -35 9 -17 33 -42 54 -55 51 -31 162 -31 245 1 78 30 168
98 206 155 59 90 72 226 27 277 -14 15 -15 19 -4 23 8 2 31 10 51 16 50 15
132 91 151 139 52 129 17 231 -91 269 -48 16 -163 23 -227 13z m105 -149 c0
-4 -28 -32 -62 -62 -48 -42 -57 -47 -40 -24 21 30 87 94 97 94 3 0 5 -3 5 -8z
m-164 -259 c-2 -2 -17 3 -34 10 -30 12 -31 14 -15 30 16 16 18 15 35 -10 9
-15 16 -29 14 -30z m24 -54 c54 -12 76 -30 90 -75 18 -54 -10 -122 -82 -199
-70 -75 -142 -115 -208 -115 -56 0 -87 20 -110 73 l-18 40 72 81 c39 45 98
116 130 159 50 65 60 75 70 62 6 -9 32 -21 56 -26z m110 24 c0 -5 3 -19 7 -33
l6 -25 -26 28 c-15 15 -27 30 -27 33 0 7 40 4 40 -3z m-520 -223 l0 -68 -57
-53 c-65 -59 -76 -52 -49 28 20 57 88 173 98 166 5 -2 8 -35 8 -73z m560 41
c0 -11 -11 -33 -24 -48 l-25 -28 17 48 c17 49 32 61 32 28z m-490 -72 c-19
-35 -30 -31 -30 12 0 41 0 42 20 24 15 -13 17 -22 10 -36z m-18 -73 c4 -22 3
-24 -13 -15 -21 11 -21 11 -13 33 8 21 20 12 26 -18z"/>
<path d="M1377 936 c-205 -73 -328 -246 -257 -361 22 -35 37 -43 174 -89 49
-17 94 -38 99 -47 22 -35 -2 -90 -68 -156 -74 -73 -160 -119 -258 -135 -144
-24 -162 -2 -151 189 7 131 2 153 -39 153 -11 0 -37 -17 -57 -39 -78 -81 -80
-233 -5 -308 18 -18 47 -36 64 -39 16 -4 37 -16 45 -29 17 -26 69 -50 91 -41
8 3 15 14 15 24 0 15 15 21 86 34 48 9 115 31 153 49 122 60 219 186 228 299
7 84 -31 118 -175 157 -110 29 -132 44 -132 87 0 50 79 134 162 171 52 24 77
29 144 29 98 1 124 -15 124 -73 0 -51 -23 -80 -71 -87 -46 -8 -60 -28 -36 -51
14 -14 22 -15 55 -5 79 24 123 81 125 159 1 119 -144 169 -316 109z m-195
-320 c20 -20 52 -39 79 -46 166 -44 199 -63 199 -120 0 -38 -11 -38 -33 0 -21
35 -63 58 -162 90 -70 22 -125 64 -125 95 0 21 4 19 42 -19z m-327 -310 c0
-107 -1 -113 -15 -88 -18 33 -19 148 -1 180 6 12 13 22 14 22 1 0 2 -52 2
-114z"/>
<path d="M2894 757 c-47 -50 -200 -270 -237 -343 -34 -66 -197 -223 -197 -189
0 13 44 88 108 184 61 92 69 108 59 128 -5 13 -15 23 -21 23 -6 0 -16 10 -21
23 -8 18 -18 22 -52 21 -57 -1 -132 -52 -209 -140 -141 -162 -272 -280 -290
-261 -12 11 40 98 118 197 78 100 89 125 66 148 -32 32 -73 0 -154 -123 -79
-120 -198 -225 -256 -225 -29 0 -30 2 -24 32 11 53 100 178 155 217 l29 21 -2
-33 c-1 -28 3 -32 25 -35 50 -6 101 94 76 147 -29 61 -109 29 -218 -87 -114
-121 -158 -231 -117 -294 26 -39 62 -43 122 -14 28 14 65 39 83 56 18 16 34
30 36 30 2 0 2 -13 -1 -29 -14 -99 102 -94 192 8 l20 22 10 -32 c6 -18 23 -41
37 -52 25 -18 28 -18 63 -2 19 9 51 35 71 56 34 38 35 38 35 14 0 -25 39 -75
58 -75 15 0 104 62 109 77 8 20 22 16 16 -5 -2 -10 5 -30 17 -45 46 -59 130
-24 239 99 67 75 76 91 61 109 -11 13 -24 4 -89 -62 -76 -77 -143 -124 -158
-110 -19 19 40 122 179 310 181 246 173 233 154 262 -9 14 -22 25 -28 25 -7 0
-35 -24 -64 -53z m-864 -249 c0 -42 -14 -52 -44 -33 -14 10 -26 20 -26 24 0
15 25 31 47 31 17 0 23 -6 23 -22z m513 9 c-34 -55 -161 -212 -206 -255 -65
-60 -90 -68 -77 -23 12 45 60 108 137 183 81 78 173 139 146 95z m-98 -227
c-9 -16 -20 -30 -25 -30 -14 0 -13 7 6 35 23 35 38 31 19 -5z"/>
<path d="M2239 666 c-14 -29 -4 -75 16 -83 50 -18 99 40 70 83 -22 33 -71 33
-86 0z"/>
<path d="M1713 603 c-94 -48 -263 -291 -263 -378 0 -46 25 -75 65 -75 26 0 45
11 90 52 58 53 155 181 155 204 0 7 20 27 44 43 25 18 48 43 54 61 13 35 9 37
-25 10 -36 -28 -45 -25 -38 14 12 63 -28 97 -82 69z m47 -85 c16 -57 0 -71
-39 -34 -16 16 -34 25 -40 22 -6 -4 -11 -3 -11 3 0 14 60 62 71 56 4 -3 13
-24 19 -47z m-52 -103 c-35 -66 -154 -195 -179 -195 -32 0 35 118 119 211 45
50 45 51 58 28 9 -17 9 -29 2 -44z"/>
</g>
</svg>
